<?xml version="1.0" ?><!DOCTYPE svg  PUBLIC '-//W3C//DTD SVG 1.1//EN'  'http://www.w3.org/Graphics/SVG/1.1/DTD/svg11.dtd'><svg enable-background="new 0 0 24 24" height="24px" id="Layer_1" version="1.1" viewBox="0 0 24 24" width="24px" xml:space="preserve" xmlns="http://www.w3.org/2000/svg" xmlns:xlink="http://www.w3.org/1999/xlink"><g><path d="M21,15.9l-5.7-1.7c0,0-0.2,0-0.4,0c-0.4,0-0.7,0.1-1,0.4c-0.5,0.5-0.4,1.3-0.1,1.7l3.1,4.8c0.1,0.1,0.7,0.8,1.3,0.8   c0.6,0,1.1-0.4,1.2-0.4c0,0,0.1-0.1,0.1-0.1l2.4-3.3c0-0.1,0.3-0.5,0.3-1C22.2,16.3,21.4,16,21,15.9z"/><path d="M14.8,13.3c0.2,0,0.3,0,0.4,0l5.7-1.6c0.2-0.1,1-0.4,1.2-1c0.2-0.6-0.1-1.1-0.2-1.2c0,0,0-0.1-0.1-0.1l-2.7-2.9   c0-0.1-0.4-0.6-1.2-0.6c-0.8,0-1.2,0.7-1.2,0.8l-3.2,4.8c-0.2,0.3-0.3,0.9,0,1.4C13.8,13.1,14.2,13.3,14.8,13.3z"/><path d="M11.9,0.8c-0.6-0.3-1.1-0.3-1.4-0.2L5.6,2.2c-0.1,0-0.6,0.2-1,0.7C4.1,3.7,5,4.7,5,4.7l5,6.3c0.1,0.1,0.5,0.5,1.2,0.5   c0.1,0,0.2,0,0.3,0c0.8-0.2,1.1-1,1.2-1.5l0-7.6C12.6,2.1,12.5,1.1,11.9,0.8z"/><path d="M9.6,15.1c0.1,0,0.2-0.1,0.2-0.1c0.3-0.1,0.8-0.4,0.8-1.3c0-0.9-0.9-1.3-1-1.4L4.5,9.9c-0.1,0-1.1-0.3-1.5-0.1   c-0.3,0.2-0.8,0.6-0.8,1.1l-0.3,3.8c0,0.2,0,0.8,0.2,1.2c0.1,0.2,0.4,0.5,0.9,0.5c0.4,0,0.7-0.1,0.7-0.1h0L9.6,15.1z"/><path d="M11.8,15.3c-0.2-0.1-0.3-0.1-0.5-0.1c-0.6,0-1.1,0.4-1.2,0.5l-4,4.1C6,20,5.5,20.7,5.7,21.3c0.2,0.5,0.4,0.8,0.9,1l4,1.2   c0,0,0.2,0,0.5,0c0.2,0,0.4,0,0.5-0.1c0.6-0.2,0.8-0.9,0.8-1.4l0.1-5.6C12.6,16.2,12.4,15.6,11.8,15.3z"/></g></svg>